<svg width="174" height="46" viewBox="0 0 174 46" fill="none" xmlns="http://www.w3.org/2000/svg">
<rect width="174" height="46" rx="10" fill="white"/>
<path d="M31.968 30V13.248H35.136V27.192H41.736V30H31.968ZM45.8276 15.648C45.1876 15.648 44.7236 15.504 44.4356 15.216C44.1636 14.928 44.0276 14.56 44.0276 14.112V13.632C44.0276 13.184 44.1636 12.816 44.4356 12.528C44.7236 12.24 45.1876 12.096 45.8276 12.096C46.4516 12.096 46.9076 12.24 47.1956 12.528C47.4836 12.816 47.6276 13.184 47.6276 13.632V14.112C47.6276 14.56 47.4836 14.928 47.1956 15.216C46.9076 15.504 46.4516 15.648 45.8276 15.648ZM44.2916 17.472H47.3636V30H44.2916V17.472ZM50.9244 30V17.472H53.9964V19.56H54.1164C54.3724 18.888 54.7724 18.328 55.3164 17.88C55.8764 17.416 56.6444 17.184 57.6204 17.184C58.9164 17.184 59.9084 17.608 60.5964 18.456C61.2844 19.304 61.6284 20.512 61.6284 22.08V30H58.5564V22.392C58.5564 21.496 58.3964 20.824 58.0764 20.376C57.7564 19.928 57.2284 19.704 56.4924 19.704C56.1724 19.704 55.8604 19.752 55.5564 19.848C55.2684 19.928 55.0044 20.056 54.7644 20.232C54.5404 20.392 54.3564 20.6 54.2124 20.856C54.0684 21.096 53.9964 21.384 53.9964 21.72V30H50.9244ZM65.0338 12.24H68.1058V22.944H68.2258L69.8818 20.688L72.6898 17.472H76.1698L71.8498 22.32L76.6258 30H72.9778L69.7618 24.384L68.1058 26.184V30H65.0338V12.24ZM82.9884 30.288C82.0604 30.288 81.2284 30.136 80.4924 29.832C79.7724 29.512 79.1564 29.072 78.6444 28.512C78.1484 27.936 77.7644 27.248 77.4924 26.448C77.2204 25.632 77.0844 24.72 77.0844 23.712C77.0844 22.72 77.2124 21.824 77.4684 21.024C77.7404 20.224 78.1244 19.544 78.6204 18.984C79.1164 18.408 79.7244 17.968 80.4444 17.664C81.1644 17.344 81.9804 17.184 82.8924 17.184C83.8684 17.184 84.7164 17.352 85.4364 17.688C86.1564 18.024 86.7484 18.48 87.2124 19.056C87.6764 19.632 88.0204 20.304 88.2444 21.072C88.4844 21.824 88.6044 22.632 88.6044 23.496V24.504H80.2764V24.816C80.2764 25.728 80.5324 26.464 81.0444 27.024C81.5564 27.568 82.3164 27.84 83.3244 27.84C84.0924 27.84 84.7164 27.68 85.1964 27.36C85.6924 27.04 86.1324 26.632 86.5164 26.136L88.1724 27.984C87.6604 28.704 86.9564 29.272 86.0604 29.688C85.1804 30.088 84.1564 30.288 82.9884 30.288ZM82.9404 19.488C82.1244 19.488 81.4764 19.76 80.9964 20.304C80.5164 20.848 80.2764 21.552 80.2764 22.416V22.608H85.4124V22.392C85.4124 21.528 85.1964 20.832 84.7644 20.304C84.3484 19.76 83.7404 19.488 82.9404 19.488ZM99.0833 27.912H98.9633C98.7393 28.632 98.3153 29.208 97.6913 29.64C97.0673 30.072 96.3393 30.288 95.5073 30.288C93.9233 30.288 92.7073 29.72 91.8593 28.584C91.0273 27.448 90.6113 25.824 90.6113 23.712C90.6113 21.616 91.0273 20.008 91.8593 18.888C92.7073 17.752 93.9233 17.184 95.5073 17.184C96.3393 17.184 97.0673 17.4 97.6913 17.832C98.3153 18.248 98.7393 18.816 98.9633 19.536H99.0833V12.24H102.155V30H99.0833V27.912ZM96.4913 27.744C97.2273 27.744 97.8433 27.568 98.3393 27.216C98.8353 26.864 99.0833 26.36 99.0833 25.704V21.72C99.0833 21.112 98.8353 20.624 98.3393 20.256C97.8433 19.888 97.2273 19.704 96.4913 19.704C95.6913 19.704 95.0433 19.976 94.5473 20.52C94.0673 21.048 93.8273 21.76 93.8273 22.656V24.816C93.8273 25.712 94.0673 26.424 94.5473 26.952C95.0433 27.48 95.6913 27.744 96.4913 27.744ZM105.194 30V27.456H107.402V15.792H105.194V13.248H112.802V15.792H110.57V27.456H112.802V30H105.194ZM115.846 30V17.472H118.918V19.56H119.038C119.294 18.888 119.694 18.328 120.238 17.88C120.798 17.416 121.566 17.184 122.542 17.184C123.838 17.184 124.83 17.608 125.518 18.456C126.206 19.304 126.55 20.512 126.55 22.08V30H123.478V22.392C123.478 21.496 123.318 20.824 122.998 20.376C122.678 19.928 122.15 19.704 121.414 19.704C121.094 19.704 120.782 19.752 120.478 19.848C120.19 19.928 119.926 20.056 119.686 20.232C119.462 20.392 119.278 20.6 119.134 20.856C118.99 21.096 118.918 21.384 118.918 21.72V30H115.846ZM131.357 12C132.013 12 132.485 12.16 132.773 12.48C133.077 12.784 133.229 13.168 133.229 13.632V14.088C133.229 14.52 133.165 14.96 133.037 15.408C132.925 15.84 132.757 16.264 132.533 16.68C132.309 17.096 132.045 17.488 131.741 17.856C131.437 18.224 131.109 18.552 130.757 18.84H128.693C129.205 18.36 129.637 17.88 129.989 17.4C130.341 16.904 130.605 16.36 130.781 15.768C130.317 15.688 129.981 15.504 129.773 15.216C129.565 14.912 129.461 14.56 129.461 14.16V13.632C129.461 13.168 129.605 12.784 129.893 12.48C130.197 12.16 130.685 12 131.357 12ZM140.313 30C139.257 30 138.449 29.728 137.889 29.184C137.345 28.624 137.073 27.832 137.073 26.808V19.92H135.225V17.472H136.185C136.649 17.472 136.961 17.368 137.121 17.16C137.297 16.936 137.385 16.608 137.385 16.176V14.04H140.145V17.472H142.713V19.92H140.145V27.552H142.521V30H140.313Z" fill="#19191D"/>
</svg>
