<svg width="31" height="29" viewBox="0 0 31 29" fill="none" xmlns="http://www.w3.org/2000/svg">
<path d="M3.65979 0C2.14925 0 0.925781 1.17977 0.925781 2.63636V26.3636C0.925781 27.8202 2.14925 29 3.65979 29H28.2658C29.7764 29 30.9999 27.8202 30.9999 26.3636V2.63636C30.9999 1.17977 29.7764 0 28.2658 0H3.65979ZM19.3803 9.22727H22.8753C23.2526 9.22727 23.5588 9.52255 23.5588 9.88636C23.5588 10.2502 23.2526 10.5455 22.8753 10.5455H19.3803C19.003 10.5455 18.6968 10.2502 18.6968 9.88636C18.6968 9.52255 19.003 9.22727 19.3803 9.22727ZM7.65133 9.73446H11.4586C13.706 9.73446 15.047 10.7947 15.047 12.5202C15.047 13.7039 14.1391 14.7367 12.9511 14.9068V15.0458C14.4849 15.1539 15.5997 16.2685 15.5997 17.7079C15.6011 19.6654 14.0677 20.9055 11.5948 20.9055H7.65133C6.95689 20.9055 6.39379 20.3626 6.39379 19.6929V10.9471C6.39379 10.2775 6.95689 9.73446 7.65133 9.73446ZM8.81809 11.5212V14.3635H10.639C11.9486 14.3649 12.6628 13.8452 12.6628 12.9475C12.6628 12.0578 11.9984 11.5212 10.8419 11.5212H8.81809ZM21.3801 12.1803C23.9897 12.1803 25.5292 13.7839 25.5292 16.4927V17.1801H19.4551V17.296C19.4865 18.5654 20.2582 19.3556 21.4789 19.3556C22.4016 19.3556 23.035 19.0393 23.2838 18.4751H25.4598C25.1071 20.086 23.5802 21.0909 21.4121 21.0909C18.715 21.0909 17.1269 19.4489 17.1269 16.6781C17.1269 13.8994 18.7473 12.1803 21.3801 12.1803ZM21.3908 13.9078C20.3067 13.9078 19.5424 14.6337 19.4631 15.7409H23.2357C23.1865 14.6113 22.4817 13.9078 21.3908 13.9078ZM8.81809 15.9443V19.1188H10.9781C12.3751 19.1188 13.13 18.5511 13.13 17.5071C13.13 16.4842 12.3505 15.9443 10.922 15.9443H8.81809Z" fill="#6E6E6E"/>
</svg>
