<svg width="32" height="29" viewBox="0 0 32 29" fill="none" xmlns="http://www.w3.org/2000/svg">
<path d="M15.6849 0C7.08413 0 0.11084 6.59403 0.11084 14.727C0.11084 21.6279 5.13607 27.4021 11.9108 29C11.8381 28.8012 11.7914 28.5705 11.7914 28.2845V25.7674C11.1593 25.7674 10.1003 25.7674 9.83425 25.7674C8.76873 25.7674 7.8213 25.3342 7.36187 24.5291C6.85182 23.6344 6.76357 22.2661 5.49947 21.4291C5.12439 21.1505 5.40992 20.8326 5.8421 20.8756C6.64027 21.0891 7.30217 21.607 7.92513 22.3753C8.5455 23.1448 8.83751 23.319 9.99648 23.319C10.5584 23.319 11.3994 23.2884 12.1911 23.1705C12.6168 22.1482 13.3527 21.2069 14.2521 20.7627C9.06593 20.2583 6.59095 17.8185 6.59095 14.5061C6.59095 13.0801 7.23338 11.7006 8.32487 10.5384C7.96666 9.38481 7.51631 7.03216 8.46244 6.13627C10.796 6.13627 12.2067 7.56725 12.5454 7.95383C13.7083 7.57706 14.9854 7.36352 16.3273 7.36352C17.6719 7.36352 18.9542 7.57706 20.1196 7.95628C20.4545 7.57215 21.8665 6.13627 24.2052 6.13627C25.1553 7.03339 24.6997 9.39585 24.3376 10.547C25.4226 11.7068 26.0611 13.0825 26.0611 14.5061C26.0611 17.816 23.5901 20.2546 18.4117 20.7614C19.8367 21.4647 20.8763 23.4405 20.8763 24.9292V28.2845C20.8763 28.4121 20.8464 28.5042 20.8308 28.6134C26.8995 26.6019 31.259 21.1529 31.259 14.727C31.259 6.59403 24.2857 0 15.6849 0Z" fill="#6E6E6E"/>
</svg>
