<svg width="31" height="29" viewBox="0 0 31 29" fill="none" xmlns="http://www.w3.org/2000/svg">
<path d="M15.4072 0C23.7117 0 30.4442 6.49205 30.4442 14.5C30.4442 22.508 23.7117 29 15.4072 29C7.10261 29 0.370117 22.508 0.370117 14.5C0.370117 6.49205 7.10261 0 15.4072 0ZM20.5942 20.4107C20.8704 19.5928 22.167 11.4372 22.3262 9.82968C22.3748 9.34327 22.2148 9.01966 21.9032 8.87466C21.5252 8.7 20.9661 8.787 20.3161 9.01307C19.4255 9.32284 8.04174 13.9833 7.38421 14.2535C6.76086 14.5092 6.171 14.7874 6.171 15.1914C6.171 15.4755 6.34597 15.635 6.82716 15.8004C7.32748 15.9724 8.58854 16.3408 9.33424 16.5392C10.0519 16.7304 10.8673 16.5643 11.3253 16.2901C11.8099 15.9994 17.4091 12.3876 17.8103 12.0706C18.2116 11.7542 18.5321 12.1596 18.204 12.4766C17.876 12.793 14.0333 16.3896 13.5262 16.8879C12.9103 17.4923 13.3471 18.1191 13.7606 18.3702C14.2315 18.6569 17.6217 20.849 18.1323 21.201C18.6429 21.5529 19.1603 21.7124 19.6346 21.7124C20.109 21.7118 20.3584 21.1094 20.5942 20.4107Z" fill="#6E6E6E"/>
</svg>
