<svg width="26" height="16" viewBox="0 0 26 16" fill="none" xmlns="http://www.w3.org/2000/svg">
<path d="M12.6 0C6.87273 0 1.98164 3.18127 0 7.67188C1.98164 12.1625 6.87273 15.3438 12.6 15.3438C18.3273 15.3438 23.2184 12.1625 25.2 7.67188C23.2184 3.18127 18.3273 0 12.6 0ZM12.6 12.7865C9.43855 12.7865 6.87273 10.4951 6.87273 7.67188C6.87273 4.84863 9.43855 2.55729 12.6 2.55729C15.7615 2.55729 18.3273 4.84863 18.3273 7.67188C18.3273 10.4951 15.7615 12.7865 12.6 12.7865ZM12.6 4.60313C10.6985 4.60313 9.16364 5.97383 9.16364 7.67188C9.16364 9.36992 10.6985 10.7406 12.6 10.7406C14.5015 10.7406 16.0364 9.36992 16.0364 7.67188C16.0364 5.97383 14.5015 4.60313 12.6 4.60313Z" fill="#B4B4BB"/>
</svg>
