<svg width="25" height="13" viewBox="0 0 25 13" fill="none" xmlns="http://www.w3.org/2000/svg">
<path d="M24.8144 8.12233C24.9056 8.28125 24.9647 8.45663 24.9883 8.63847C25.0119 8.8203 24.9997 9.00503 24.9522 9.18211C24.9047 9.35918 24.8229 9.52513 24.7115 9.67049C24.6001 9.81584 24.4613 9.93775 24.3029 10.0293C24.1446 10.1208 23.9698 10.1801 23.7887 10.2038C23.6075 10.2275 23.4234 10.2152 23.247 10.1675C23.0706 10.1199 22.9052 10.0378 22.7604 9.926C22.6155 9.8142 22.4941 9.67486 22.4029 9.51595L20.4519 6.08997C19.3633 6.7773 18.1896 7.31845 16.9608 7.6996L17.5729 11.3741C17.6332 11.7386 17.5467 12.1122 17.3325 12.4127C17.1183 12.7133 16.794 12.9161 16.4308 12.9768C16.3544 12.9903 16.277 12.9969 16.1994 12.9965C15.8715 12.9962 15.5543 12.8794 15.304 12.6668C15.0536 12.4543 14.8863 12.1596 14.8317 11.8352L14.2357 8.25821C13.0798 8.38673 11.9133 8.38673 10.7573 8.25821L10.1672 11.8386C10.1125 12.1635 9.94482 12.4584 9.69401 12.6711C9.44319 12.8837 9.12542 13.0002 8.79712 13C8.71954 13.0004 8.64209 12.9937 8.56569 12.9802C8.38583 12.9498 8.2137 12.8842 8.05914 12.787C7.90457 12.6898 7.77059 12.5631 7.66485 12.4139C7.55912 12.2647 7.48369 12.0962 7.44289 11.9177C7.40209 11.7393 7.39671 11.5546 7.42705 11.3741L8.03919 7.69031C6.8104 7.30916 5.6367 6.76801 4.54806 6.08068L2.59711 9.51595C2.50593 9.67486 2.38446 9.8142 2.23963 9.926C2.0948 10.0378 1.92945 10.1199 1.75301 10.1675C1.57658 10.2152 1.39252 10.2275 1.21134 10.2038C1.03016 10.1801 0.855408 10.1208 0.697067 10.0293C0.538725 9.93775 0.399893 9.81584 0.288496 9.67049C0.177099 9.52513 0.0953186 9.35918 0.0478251 9.18211C0.000331598 9.00503 -0.0119455 8.8203 0.011695 8.63847C0.0353356 8.45663 0.0944307 8.28125 0.185606 8.12233L2.31708 4.3886C1.59465 3.73383 0.924893 3.02281 0.31405 2.26218C0.0984057 1.97352 0.00270434 1.61218 0.0470749 1.25416C0.0914455 0.896133 0.27243 0.569332 0.551961 0.34249C0.831492 0.115647 1.18778 0.00644139 1.5459 0.0378435C1.90401 0.0692457 2.23604 0.238808 2.47214 0.510865C4.3282 2.8173 7.57517 5.56737 12.5 5.56737C17.4248 5.56737 20.6718 2.8173 22.5279 0.510865C22.7601 0.226084 23.0952 0.0450763 23.46 0.00734704C23.8248 -0.0303823 24.1896 0.0782297 24.4749 0.309479C24.7601 0.540729 24.9427 0.87584 24.9827 1.24168C25.0226 1.60751 24.9168 1.97437 24.6883 2.26218C24.0767 3.0229 23.4061 3.73393 22.6829 4.3886L24.8144 8.12233Z" fill="#B4B4BB"/>
</svg>
